<?xml version="1.0" standalone="no"?>
<!DOCTYPE svg PUBLIC "-//W3C//DTD SVG 20010904//EN"
 "http://www.w3.org/TR/2001/REC-SVG-20010904/DTD/svg10.dtd">
<svg version="1.0" xmlns="http://www.w3.org/2000/svg"
 width="128.000000pt" height="128.000000pt" viewBox="0 0 128.000000 128.000000"
 preserveAspectRatio="xMidYMid meet">
<metadata>
Created by potrace 1.11, written by Peter Selinger 2001-2013
</metadata>
<g transform="translate(0.000000,128.000000) scale(0.100000,-0.100000)"
fill="#000000" stroke="none">
<path d="M633 877 c-255 -128 -463 -234 -463 -237 0 -3 37 -25 83 -49 45 -24
110 -59 143 -78 l62 -33 73 61 c41 33 94 77 119 97 24 21 89 75 145 122 55 46
93 76 85 65 -18 -23 -282 -338 -290 -345 -3 -3 -25 -30 -50 -60 -25 -30 -48
-58 -53 -61 -4 -3 -6 -48 -5 -99 l3 -94 81 106 81 107 34 -18 c199 -104 256
-135 267 -143 6 -6 12 -8 12 -5 0 2 7 40 15 83 8 44 17 95 20 114 3 19 7 46
10 60 3 14 7 41 10 60 3 19 8 42 10 50 2 8 6 29 9 45 35 214 66 388 82 463 3
14 0 22 -8 21 -7 0 -221 -104 -475 -232z"/>
</g>
</svg>
